<?xml version="1.0" encoding="UTF-8"?>
<svg width="140px" height="25px" viewBox="0 0 140 25" version="1.1" xmlns="http://www.w3.org/2000/svg" xmlns:xlink="http://www.w3.org/1999/xlink">
    <title>Combined Shape Copy 2</title>
    <defs>
        <linearGradient x1="100%" y1="50.8579672%" x2="-1.11022302e-14%" y2="48.4056122%" id="linearGradient-1">
            <stop stop-color="#53B1E7" offset="0%"></stop>
            <stop stop-color="#75D5FF" offset="100%"></stop>
        </linearGradient>
        <path d="M10.9164679,0 C13.5512004,0 15.7475758,0.842045455 17.5044467,2.525 C17.7305104,1.12613636 18.4832911,0.427272727 19.7627888,0.427272727 C21.3188416,0.427272727 22.0968681,1.13863636 22.0968681,2.56136364 C22.0968681,2.79886364 22.0463767,3.27272727 21.9465414,3.98409091 C21.7962148,5.05113636 21.7204777,5.77386364 21.7204777,6.15340909 C21.7204777,6.58068182 21.7445759,6.9 21.7962148,7.11363636 C21.8467062,7.87272727 21.8719519,8.3 21.8719519,8.39431818 C21.8719519,9.01136364 21.5827739,9.52613636 21.0055655,9.94090909 C20.4283571,10.3556818 19.6881993,10.5636364 18.7839444,10.5636364 C17.3277268,10.5636364 16.4498652,9.8875 16.1492119,8.53636364 C15.8485586,7.18522727 15.4147917,6.25454545 14.8502061,5.74431818 C14.2856206,5.23522727 13.3882509,4.97954545 12.1580971,4.97954545 C10.5263072,4.97954545 9.26516996,5.69659091 8.37468545,7.13068182 C7.48305342,8.56590909 7.0389587,10.5977273 7.0389587,13.2295455 C7.0389587,15.4579545 7.4715781,17.1943182 8.33796444,18.4397727 C9.20435078,19.6840909 10.4023738,20.3068182 11.9331809,20.3068182 C12.9120253,20.3068182 13.7210351,20.0397727 14.3613577,19.5068182 C15.0016803,18.9738636 15.3218416,18.3034091 15.3218416,17.4977273 C15.3218416,16.5011364 14.882337,16.0034091 14.0044754,16.0034091 L13.7784117,16.0034091 C13.6774289,16.0272727 13.5902165,16.0386364 13.5144794,16.0386364 C13.1128433,16.0863636 12.8867796,16.1090909 12.8374358,16.1090909 C12.3348169,16.1090909 11.9090827,15.9022727 11.557938,15.4863636 C11.2056459,15.0715909 11.0312211,14.5568182 11.0312211,13.9397727 C11.0312211,13.2284091 11.2825305,12.6590909 11.7840018,12.2329545 C12.2854731,11.8068182 12.9384185,11.5931818 13.7416906,11.5931818 C14.2684076,11.5931818 15.0647946,11.6590909 16.1319989,11.7886364 C17.1980558,11.9193182 18.008213,11.9840909 18.5601757,11.9840909 C19.3886935,11.9840909 20.3044237,11.9125 21.3085139,11.7670455 C22.111786,11.6522727 22.6637487,11.5931818 22.9644019,11.5931818 C23.5437029,11.5931818 24.0412386,11.7119764 24.4570093,11.948713 C24.8683269,10.5829072 25.550486,9.42688293 26.5022418,8.48181818 C28.1833755,6.81022727 30.5427005,5.975 33.579069,5.975 C36.5649462,5.975 38.9185335,6.80454545 40.6375358,8.46363636 C41.7590401,9.54679495 42.5147009,10.8921131 42.904518,12.4995907 C43.2894907,10.8902957 44.0211975,9.55104167 45.097991,8.48181818 C46.7791248,6.81022727 49.1384497,5.975 52.1748182,5.975 C55.1606954,5.975 57.5142827,6.80454545 59.233285,8.46363636 C60.3587555,9.55062556 61.1157903,10.9016318 61.5043893,12.5166551 C61.8515977,11.0724759 62.4752299,9.82766799 63.3735789,8.78295455 C64.8424193,7.07613636 66.7679773,6.22272727 69.1525479,6.22272727 C71.0597454,6.22272727 72.8166163,6.92272727 74.4231605,8.32045455 L74.4231605,5.76136364 C74.4231605,4.90795455 74.1087368,4.48068182 73.4821846,4.48068182 C73.3318579,4.48068182 73.0300571,4.50454545 72.5790772,4.55113636 C72.2531783,4.64659091 71.9261318,4.69318182 71.6002328,4.69318182 C71.1228596,4.69318182 70.7212236,4.50340909 70.3953246,4.12386364 C70.0682781,3.74431818 69.9064762,3.27045455 69.9064762,2.70113636 C69.9064762,1.18409091 70.7590921,0.425 72.4666191,0.425 C73.0185818,0.425 73.4202179,0.4375 73.6715273,0.460227273 C74.6744699,0.555681818 75.352661,0.602272727 75.7038057,0.602272727 C75.9889673,0.602272727 76.3901013,0.579651989 76.9056702,0.534410511 L77.1336301,0.513636364 C77.7613298,0.454545455 78.2249326,0.425 78.5267334,0.425 C79.1544332,0.425 79.5870526,0.5625 79.8257391,0.836363636 C80.0644257,1.11136364 80.183769,1.61704545 80.183769,2.35568182 L80.183769,18.625 C80.183769,19.8409091 80.4224556,20.4477273 80.8986812,20.4477273 C81.0490078,20.4477273 81.237203,20.3977273 81.4632667,20.2977273 C81.6135933,20.2318182 81.8144114,20.1988636 82.0657208,20.1988636 C82.3347356,20.1988636 82.5702767,20.2364644 82.7723083,20.3116659 C82.0494503,18.9637913 81.6893304,17.3845143 81.6893304,15.575 C81.6893304,12.7068182 82.5740773,10.3897727 84.343571,8.62272727 C86.1130646,6.85681818 88.4287834,5.97386364 91.2895796,5.97386364 C93.9495578,5.97386364 96.0759338,6.69772727 97.6698552,8.14318182 C98.9605961,9.31630521 99.7291011,10.8085391 99.9735343,12.6204896 C100.383309,11.0684786 101.147086,9.73637518 102.262277,8.62272727 C104.03177,6.85681818 106.346341,5.97386364 109.207138,5.97386364 C111.867116,5.97386364 113.993492,6.69772727 115.588561,8.14318182 C116.821328,9.26361481 117.577031,10.6751366 117.855134,12.3782753 C118.208406,10.9923182 118.820489,9.79394408 119.689839,8.78295455 C121.157531,7.07613636 123.083089,6.22272727 125.46766,6.22272727 C127.374858,6.22272727 129.131728,6.92272727 130.738273,8.32045455 L130.738273,5.76136364 C130.738273,4.90795455 130.423849,4.48068182 129.797297,4.48068182 C129.64697,4.48068182 129.345169,4.50454545 128.894189,4.55113636 C128.567143,4.64659091 128.241244,4.69318182 127.915345,4.69318182 C127.437972,4.69318182 127.036336,4.50340909 126.710437,4.12386364 C126.38339,3.74431818 126.221588,3.27045455 126.221588,2.70113636 C126.221588,1.18409091 127.074204,0.425 128.781731,0.425 C129.333694,0.425 129.73533,0.4375 129.986639,0.460227273 C130.989582,0.555681818 131.667773,0.602272727 132.018918,0.602272727 C132.304079,0.602272727 132.705213,0.579651989 133.220782,0.534410511 L133.448742,0.513636364 C134.076442,0.454545455 134.540045,0.425 134.841846,0.425 C135.469545,0.425 135.902165,0.5625 136.140851,0.836363636 C136.379538,1.11136364 136.498881,1.61704545 136.498881,2.35568182 L136.498881,18.625 C136.498881,19.8409091 136.737568,20.4477273 137.213793,20.4477273 C137.36412,20.4477273 137.552315,20.3977273 137.778379,20.2977273 C137.928706,20.2318182 138.129524,20.1988636 138.380833,20.1988636 C139.459513,20.1988636 140,20.8034091 140,22.0125 C140,22.7477273 139.811805,23.3465909 139.435414,23.8090909 C139.059024,24.2715909 138.556405,24.5022727 137.929853,24.5022727 L137.703789,24.5022727 L136.386423,24.2886364 C136.084622,24.2409091 135.657741,24.2170455 135.106925,24.2170455 C134.45398,24.2170455 133.91464,24.2409091 133.487758,24.2886364 C132.860059,24.3602273 132.521537,24.3954545 132.471045,24.3954545 C131.693019,24.3954545 131.304006,23.9693182 131.304006,23.1159091 L131.304006,21.8 C129.998115,23.9102273 128.041573,24.9647727 125.430939,24.9647727 C123.122106,24.9647727 121.220646,24.0704545 119.727707,22.2795455 C118.329482,20.6046053 117.586519,18.5196334 117.496938,16.0236986 C117.215609,16.2927968 116.722406,16.4284091 116.020033,16.4284091 L106.83519,16.4284091 C106.383062,16.4284091 106.10077,16.4704545 105.988312,16.5534091 C105.875853,16.6363636 105.818477,16.8443182 105.818477,17.1761364 C105.818477,18.1715909 106.156999,19.0022727 106.83519,19.6647727 C107.512234,20.3295455 108.365997,20.6613636 109.395333,20.6613636 C110.448767,20.6613636 111.528594,20.1159091 112.632519,19.025 C113.3853,18.2659091 114.21267,17.8863636 115.116925,17.8863636 C115.869706,17.8863636 116.477898,18.0886364 116.942648,18.4909091 C117.407398,18.8943182 117.6392,19.4034091 117.6392,20.0193182 C117.6392,21.3954545 116.841665,22.5625 115.248891,23.5227273 C113.65497,24.4829545 111.716789,24.9636364 109.433201,24.9636364 C106.446177,24.9636364 104.061606,24.1102273 102.280637,22.4034091 C100.584973,20.7793904 99.696531,18.6399503 99.6143229,15.9850886 L99.6631175,15.9306818 C99.3991853,16.2625 98.8782059,16.4284091 98.101327,16.4284091 L88.9164843,16.4284091 C88.4643568,16.4284091 88.1820641,16.4704545 88.069606,16.5534091 C87.9571479,16.6363636 87.8997713,16.8443182 87.8997713,17.1761364 C87.8997713,18.1715909 88.2382931,19.0022727 88.9164843,19.6647727 C89.5935279,20.3295455 90.4472914,20.6613636 91.4766272,20.6613636 C92.5300612,20.6613636 93.6098884,20.1159091 94.7138138,19.025 C95.4665945,18.2659091 96.2951123,17.8863636 97.1982197,17.8863636 C97.9510004,17.8863636 98.5591921,18.0886364 99.0239424,18.4909091 C99.4886927,18.8943182 99.7204941,19.4034091 99.7204941,20.0193182 C99.7204941,21.3954545 98.9241072,22.5625 97.3301858,23.5227273 C95.7362645,24.4829545 93.7980836,24.9636364 91.5144958,24.9636364 C88.5274711,24.9636364 86.144048,24.1102273 84.3619315,22.4034091 C84.112194,22.1642236 83.8799663,21.9138578 83.6652452,21.6523119 C83.678933,21.7653382 83.6848878,21.8855888 83.6848878,22.0125 C83.6848878,22.7477273 83.4966927,23.3465909 83.1203023,23.8090909 C82.7439119,24.2715909 82.2412931,24.5022727 81.6147409,24.5022727 L81.3886771,24.5022727 L80.0713109,24.2886364 C79.7695101,24.2409091 79.3426283,24.2170455 78.7906657,24.2170455 C78.1377202,24.2170455 77.5983803,24.2409091 77.1714986,24.2886364 C76.5437988,24.3602273 76.205277,24.3954545 76.1547856,24.3954545 C75.3767592,24.3954545 74.987746,23.9693182 74.987746,23.1159091 L74.987746,21.8 C73.6818551,23.9102273 71.7241662,24.9647727 69.1146794,24.9647727 C66.8058459,24.9647727 64.904386,24.0704545 63.4114474,22.2795455 C62.4705185,21.1524023 61.8263286,19.8395741 61.4783044,18.3407771 C61.094286,19.9643403 60.370467,21.3187308 59.3090221,22.4045455 C57.6393636,24.1113636 55.3121696,24.9647727 52.3251449,24.9647727 C49.2130392,24.9647727 46.8101081,24.1352273 45.1163515,22.475 C44.008998,21.3903104 43.2636303,20.0161305 42.8802485,18.3534128 C42.494837,19.9709711 41.7716996,21.3213894 40.7121253,22.4045455 C39.0424669,24.1113636 36.7152728,24.9647727 33.7293957,24.9647727 C30.61729,24.9647727 28.2143589,24.1352273 26.5206023,22.475 C25.0222489,21.007313 24.1866421,19.0096087 24.0137819,16.4842471 C23.9427122,16.4941569 23.868719,16.4988636 23.7929197,16.4988636 L22.8886648,16.4988636 C22.2116212,16.4988636 21.8730994,17.0363636 21.8730994,18.1125 C21.8730994,18.5670455 21.8857222,19.0454545 21.9109679,19.5477273 L21.986705,21.0897727 C22.0119507,21.6159091 22.0245736,22.1181818 22.0245736,22.5965909 C22.0245736,24.1977273 21.0962205,24.9988636 19.2395144,24.9988636 C17.4826436,24.9988636 16.6047819,24.4170455 16.6047819,23.2556818 L16.6047819,23.0420455 C14.8697142,24.3488636 12.8994025,25 10.6904042,25 C8.757961,25 6.93797592,24.5204545 5.23159646,23.5602273 C3.52521701,22.6 2.28244031,21.35 1.5044139,19.8079545 C0.501471299,17.8397727 0,15.5522727 0,12.9443182 C0,8.96136364 0.978844436,5.80795455 2.93653331,3.48522727 C4.89422218,1.16136364 7.55305284,0 10.9164679,0 Z M52.1937525,10.2272727 C51.0886796,10.2272727 50.2177031,10.6840909 49.5773805,11.5965909 C48.9370579,12.5090909 48.6168966,13.7602273 48.6168966,15.3477273 C48.6168966,16.9602273 48.9370579,18.2170455 49.5773805,19.1170455 C50.2177031,20.0181818 51.1139253,20.4681818 52.2694896,20.4681818 C54.6035688,20.4681818 55.7706084,18.7613636 55.7706084,15.3465909 C55.7706084,11.9318182 54.5771756,10.2272727 52.1937525,10.2272727 Z M33.4126769,10.2272727 C32.307604,10.2272727 31.4366276,10.6840909 30.7963049,11.5965909 C30.1559823,12.5090909 29.835821,13.7602273 29.835821,15.3477273 C29.835821,16.9602273 30.1559823,18.2170455 30.7963049,19.1170455 C31.4366276,20.0181818 32.3328497,20.4681818 33.488414,20.4681818 C35.8224933,20.4681818 36.9895329,18.7613636 36.9895329,15.3465909 C36.9895329,11.9318182 35.7961,10.2272727 33.4126769,10.2272727 Z M126.786174,10.7045455 C125.856673,10.7045455 125.098155,11.1193182 124.508324,11.9488636 C123.918492,12.7795455 123.585708,13.9045455 123.511119,15.3272727 L123.511119,15.7897727 C123.511119,17.2363636 123.804887,18.3738636 124.395866,19.2034091 C124.984549,20.0340909 125.782084,20.4488636 126.786174,20.4488636 C127.890099,20.4488636 128.787469,19.9988636 129.477135,19.0977273 C130.166802,18.1965909 130.512209,17 130.512209,15.5056818 C130.512209,14.0602273 130.173687,12.8977273 129.495496,12.0204545 C128.818452,11.1431818 127.915345,10.7045455 126.786174,10.7045455 Z M70.4699142,10.7045455 C69.5404136,10.7045455 68.7818952,11.1193182 68.192064,11.9488636 C67.6022328,12.7795455 67.2705961,13.9045455 67.1948591,15.3272727 L67.1948591,15.7897727 C67.1948591,17.2363636 67.4897747,18.3738636 68.0796059,19.2034091 C68.6694371,20.0340909 69.4658241,20.4488636 70.4699142,20.4488636 C71.5738396,20.4488636 72.4712093,19.9988636 73.1608757,19.0977273 C73.8505422,18.1965909 74.1959492,17 74.1959492,15.5056818 C74.1959492,14.0602273 73.8574274,12.8977273 73.1792362,12.0204545 C72.5021926,11.1431818 71.5990853,10.7045455 70.4699142,10.7045455 Z M109.054516,9.78068182 C108.050426,9.78068182 107.234531,10.1488636 106.607979,10.8829545 C106.206343,11.3568182 106.005525,11.7829545 106.005525,12.1625 C106.005525,12.3045455 106.043393,12.4238636 106.117983,12.5181818 C106.19372,12.6125 106.456504,12.6602273 106.908632,12.6602273 L111.124663,12.6602273 C111.501053,12.6602273 111.732855,12.6193182 111.821215,12.5363636 C111.908427,12.4534091 111.953181,12.3045455 111.953181,12.0920455 C111.953181,11.4761364 111.664003,10.9363636 111.086794,10.4738636 C110.509586,10.0113636 109.831395,9.78068182 109.054516,9.78068182 Z M91.1381054,9.78068182 C90.1340153,9.78068182 89.3181203,10.1488636 88.6915681,10.8829545 C88.2887845,11.3568182 88.0879665,11.7829545 88.0879665,12.1625 C88.0879665,12.3045455 88.125835,12.4238636 88.2004246,12.5181818 C88.2761617,12.6125 88.5389464,12.6602273 88.9910738,12.6602273 L93.2071049,12.6602273 C93.5834952,12.6602273 93.8152966,12.6193182 93.9036565,12.5363636 C93.9908689,12.4534091 94.0356227,12.3045455 94.0356227,12.0920455 C94.0356227,11.4761364 93.7475922,10.9363636 93.1703838,10.4738636 C92.5931755,10.0113636 91.9149843,9.78068182 91.1381054,9.78068182 Z" id="path-2"></path>
    </defs>
    <g id="Admin-goodeed" stroke="none" stroke-width="1" fill="none" fill-rule="evenodd">
        <g id="Artboard" transform="translate(-33.000000, -37.000000)">
            <g id="Combined-Shape-Copy-2" transform="translate(33.000000, 37.000000)">
                <mask id="mask-3" fill="white">
                    <use xlink:href="#path-2"></use>
                </mask>
                <use id="Combined-Shape-Copy" fill="url(#linearGradient-1)" xlink:href="#path-2"></use>
                <g id="Group" mask="url(#mask-3)">
                    <g transform="translate(70.154508, 11.524472) rotate(16.000000) translate(-70.154508, -11.524472) translate(-11.845492, -64.975528)">
                        <rect id="Rectangle" fill="#F72321" x="0.724585556" y="7.6335986" width="30" height="145"></rect>
                        <rect id="Rectangle-Copy" fill="#FB8900" x="29.1271767" y="8.17545909" width="27" height="138"></rect>
                        <rect id="Rectangle-Copy-2" fill="#FFF200" x="55.3757256" y="8.05848636" width="27" height="138"></rect>
                        <rect id="Rectangle-Copy-3" fill="#1BC100" x="81.5753309" y="7.63249664" width="29" height="138"></rect>
                        <rect id="Rectangle-Copy-4" fill="#0063FF" x="110.083953" y="8.15756343" width="27" height="138"></rect>
                        <rect id="Rectangle-Copy-5" fill="#7F2BC8" x="136.201999" y="0.902875904" width="27" height="145"></rect>
                    </g>
                </g>
            </g>
        </g>
    </g>
</svg>